<svg class="eye-closed" viewBox="0 0 24 24" fill="none" xmlns="http://www.w3.org/2000/svg">
                            <path d="M14.83 9.18005C14.69 9.06005 14.53 8.97005 14.36 8.92005C14.19 8.87005 14.01 8.85005 13.83 8.88005C13.65 8.90005 13.47 8.96005 13.31 9.06005C13.15 9.16005 13.01 9.29005 12.9 9.45005C12.67 9.78005 12.6 10.2 12.71 10.59C12.81 10.98 13.09 11.3 13.47 11.45C13.84 11.6 14.26 11.56 14.61 11.34C14.95 11.12 15.17 10.75 15.2 10.33C15.23 9.91005 15.06 9.50005 14.73 9.21005L14.83 9.18005ZM10.8 9.45005C10.69 9.29005 10.55 9.16005 10.39 9.06005C10.23 8.96005 10.05 8.90005 9.87 8.88005C9.69 8.85005 9.51 8.87005 9.34 8.92005C9.17 8.97005 9.01 9.06005 8.87 9.18005C8.54 9.47005 8.37 9.88005 8.4 10.3C8.43 10.72 8.65 11.09 8.99 11.31C9.34 11.53 9.76 11.57 10.13 11.42C10.51 11.27 10.79 10.95 10.89 10.56C11 10.17 10.93 9.76005 10.7 9.43005L10.8 9.45005Z" fill="#6a11cb"></path>
                            <path d="M12 16.5C11.09 16.5 10.21 16.27 9.43 15.86C9.3 15.8 9.18 15.73 9.07 15.65C8.95 15.57 8.84 15.49 8.74 15.4L2.45 21.69L2.32 21.56C2.13 21.37 2.03 21.11 2.03 20.84C2.03 20.57 2.13 20.31 2.32 20.12L20.12 2.32C20.31 2.13 20.57 2.03 20.84 2.03C21.11 2.03 21.37 2.13 21.56 2.32L21.69 2.45L15.4 8.74C15.92 9.34 16.33 10.03 16.61 10.79C16.89 11.55 17.03 12.36 17.03 13.19C17.03 15.26 16.01 17.07 14.38 18.19C13.64 18.66 12.83 18.94 12 19V16.5H12Z" fill="#6a11cb"></path>
                            <path d="M2.03 20.84C2.03 21.11 2.13 21.37 2.32 21.56L2.45 21.69L8.74 15.4C8.65 15.49 8.57 15.57 8.49 15.65C8.41 15.73 8.33 15.81 8.25 15.89L2.32 21.56C2.13 21.37 2.03 21.11 2.03 20.84Z" fill="#6a11cb"></path>
                            <path d="M21.56 2.32C21.75 2.51 21.85 2.77 21.85 3.04C21.85 3.31 21.75 3.57 21.56 3.76L15.89 9.43C15.97 9.35 16.05 9.27 16.13 9.19C16.21 9.11 16.29 9.03 16.37 8.95L21.56 3.76C21.75 3.57 21.85 3.31 21.85 3.04C21.85 2.77 21.75 2.51 21.56 2.32Z" fill="#6a11cb"></path>
                            <path d="M9.43 15.86C8.65 16.27 7.77 16.5 6.86 16.5H3.5C3.5 17.42 3.87 18.31 4.53 18.97C5.19 19.63 6.08 20 7 20H17C17.92 20 18.81 19.63 19.47 18.97C20.13 18.31 20.5 17.42 20.5 16.5V13.19C20.5 12.26 20.36 11.35 20.08 10.49C19.8 9.63 19.39 8.83 18.87 8.12L15.4 11.59C15.49 11.68 15.57 11.76 15.65 11.84C15.73 11.92 15.8 12 15.87 12.09L9.43 15.86Z" fill="#6a11cb"></path>
                        </svg>